<svg xmlns="http://www.w3.org/2000/svg" viewBox="0 0 100 100" width="100" height="100">
  <!-- Panda Face -->
  <circle cx="50" cy="50" r="35" fill="#ffffff" stroke="#333333" stroke-width="2"/>
  
  <!-- Ears -->
  <circle cx="25" cy="25" r="12" fill="#333333"/>
  <circle cx="75" cy="25" r="12" fill="#333333"/>
  
  <!-- Eye patches -->
  <ellipse cx="35" cy="45" rx="10" ry="12" fill="#333333"/>
  <ellipse cx="65" cy="45" rx="10" ry="12" fill="#333333"/>
  
  <!-- Eyes -->
  <circle cx="35" cy="45" r="5" fill="#ffffff"/>
  <circle cx="65" cy="45" r="5" fill="#ffffff"/>
  <circle cx="35" cy="45" r="2" fill="#333333"/>
  <circle cx="65" cy="45" r="2" fill="#333333"/>
  
  <!-- Nose -->
  <ellipse cx="50" cy="58" rx="4" ry="3" fill="#333333"/>
  
  <!-- Mouth -->
  <path d="M 50 60 Q 45 65 40 60" fill="none" stroke="#333333" stroke-width="1.5" stroke-linecap="round"/>
  <path d="M 50 60 Q 55 65 60 60" fill="none" stroke="#333333" stroke-width="1.5" stroke-linecap="round"/>
  
  <!-- Resume symbol (small document) -->
  <rect x="70" y="70" width="20" height="25" fill="#4F46E5" stroke="#333333" stroke-width="1" rx="2"/>
  <line x1="73" y1="75" x2="87" y2="75" stroke="#ffffff" stroke-width="1"/>
  <line x1="73" y1="78" x2="87" y2="78" stroke="#ffffff" stroke-width="1"/>
  <line x1="73" y1="81" x2="87" y2="81" stroke="#ffffff" stroke-width="1"/>
  <line x1="73" y1="84" x2="87" y2="84" stroke="#ffffff" stroke-width="1"/>
  <line x1="73" y1="87" x2="87" y2="87" stroke="#ffffff" stroke-width="1"/>
  <line x1="73" y1="90" x2="87" y2="90" stroke="#ffffff" stroke-width="1"/>
</svg>
